<svg width="32" height="32" viewBox="0 0 32 32" fill="none" xmlns="http://www.w3.org/2000/svg">
<path fill-rule="evenodd" clip-rule="evenodd" d="M7.27647 7.27647C7.64511 6.90784 8.24278 6.90784 8.61141 7.27647L16 14.6651L23.3886 7.27647C23.7572 6.90784 24.3549 6.90784 24.7235 7.27647C25.0922 7.64511 25.0922 8.24278 24.7235 8.61141L17.3349 16L24.7235 23.3886C25.0922 23.7572 25.0922 24.3549 24.7235 24.7235C24.3549 25.0922 23.7572 25.0922 23.3886 24.7235L16 17.3349L8.61141 24.7235C8.24278 25.0922 7.64511 25.0922 7.27647 24.7235C6.90784 24.3549 6.90784 23.7572 7.27647 23.3886L14.6651 16L7.27647 8.61141C6.90784 8.24278 6.90784 7.64511 7.27647 7.27647Z" fill="#DA202A" stroke="#DA202A" stroke-width="0.5" stroke-linecap="round" stroke-linejoin="round"/>
</svg>
