<?xml version="1.0" encoding="UTF-8"?>
<svg id="Layer_1" data-name="Layer 1" xmlns="http://www.w3.org/2000/svg" viewBox="0 0 164.02 52">
  <defs>
    <style>
      .cls-1 {
        fill: #9d0f11;
      }

      .cls-2 {
        fill: #004994;
      }

      .cls-3 {
        fill: #fff;
      }

      .cls-4 {
        fill: #a1acd5;
      }
    </style>
  </defs>
  <path class="cls-1" d="M41.85,10.1c0-.14-.04-.28-.08-.43-.16-.55-.55-.81-.88-.91.27.91-.18,1.81-.39,2.19-.57,1.02-1.86,1.99-2.91,2.28-1.02.3-2.56.2-2.56.2l-1.8,2.97h-.2l-.53.87,1.62.06,1.8-2.95s1.43.08,2.46-.18l3.46-4.06.02-.04Z"/>
  <path class="cls-1" d="M37.26,12.07l1.29-2.15h.94c.18-.87-.72-.95-.72-.95h-1.11l-1.91,3.19s.86.04,1.5-.1Z"/>
  <path class="cls-1" d="M129.4,31.34l-2.44-.24-.06.45,3.48.37.12-1.1-1.02-.1-.08.61Z"/>
  <path class="cls-1" d="M128.77,25.21l-1.02-.06-.55,4.9,1.03.1.55-4.94Z"/>
  <path class="cls-1" d="M111.36,21.51c4.44-.32,6.82-1.89,8.17-3.94l1.11-7.56c-.33-.77-.86-1.48-1.54-2.07.74,1.32.94,2.84.65,4.2-.8,3.7-2.66,7.29-9.67,7.78-1.84.14-3.95-.35-5.45-1.6,1.27,2.42,4.26,3.35,6.74,3.17l-.02.02Z"/>
  <path class="cls-1" d="M107.01,16.51c-.33-.85-.35-1.91.04-3.27.84-2.78,3.05-4.59,6.47-4.73,1.13-.04,1.97.2,2.6.63-.55-1.28-1.72-2.28-3.89-2.21-3.44.14-5.63,1.95-6.47,4.75-.74,2.44-.06,4,1.25,4.83Z"/>
  <path class="cls-1" d="M102.04,13h-4.32l-1.76,6.09-.94-.04-.39,1.34,2.7.12,1.76-6.07h3.61c-.04-.65.04-1.4.22-2.21h-.68l-.2.77Z"/>
  <path class="cls-1" d="M105.89,6.84l-1.78.06-.14.53-4.73.16-.88,3.21h1.8l.49-1.75,3.85-.14c.35-.43.74-.89,1.21-1.32l.18-.75Z"/>
  <path class="cls-1" d="M71.82,18.02l-4.59-.18-.47,1.12,6.31.32.74-1.95-1.7-.08-.29.77Z"/>
  <path class="cls-1" d="M70.39,15.99l1.39-3.41-.92-.3,1.15-.28,1.74-4.25-1.8.02-3.28,8.13,1.72.08Z"/>
  <path class="cls-1" d="M65.84,17.02l-.74-.04-.31.77-4.36-.2-.51,1.06,5.96.32.47-1.1-.86-.04.35-.77Z"/>
  <path class="cls-1" d="M66.29,9.59l2.79-.06.72-1.67-.94.04-.18.41-3.48.08-1.13,2.6,1.62-.02.61-1.38Z"/>
  <path class="cls-1" d="M63.5,15.78l.9-1.93h2.81l.72-1.67h-1.27l-.18.47h-3.15l-1.45,3.07,1.64.06Z"/>
  <path class="cls-1" d="M59.24,16.62c-.25.08-.47.14-.68.18l-.1.22s-2.54,1.16-4.28.24c1.39,2.76,5.39.93,5.39.93l.29-.67-1.02-.04.41-.87v.02Z"/>
  <path class="cls-1" d="M54.69,14.36c.1.41.39,1,1.13,1.26,0-.04-.02-.06-.04-.1-.25-1.04.8-3.37,2.85-4.9,1.7-1.26,2.99-1.04,3.75-.65l.84-1.75c-.16-.06-.33-.1-.53-.14l-.63,1.28s-1.45-1.69-3.87-.33c-.35.22-.68.45-1.02.75-.02.02-.06.06-.08.08-.39.35-.8.77-1.17,1.22-.94,1.26-1.39,2.56-1.23,3.27l.02.02Z"/>
  <path class="cls-1" d="M52.36,9.79c.1-.49-.06-.95-.9-1.04l-1.5.06-1.82,3.41s.74.08,1.56-.08l1.23-2.28,1.43-.06Z"/>
  <path class="cls-1" d="M55.1,9.57c-.14-.55-.53-.87-.94-1.02.1.39.08.89-.14,1.56-.27.75-1.17,2.95-4.08,3.39l1.15,3.68-1.19-.04.23,1.02,1.91.1-1.15-3.7c.76-.12,1.37-.35,1.86-.63.27-1.36,1.21-3.03,2.34-4.31l.02-.04Z"/>
  <path class="cls-1" d="M45.62,16.92l-.18-.02-.51.97,1.66.1,1.99-3.72-.43-2.01-2.52,4.69Z"/>
  <path class="cls-1" d="M72.17,13.63l6.17,2.03.08-.39.27.51.72.24-1.11-2.42.88-.71-.35-.65.43-.32-2.17.53,1.02,2.23-4.36-1.44-1.58.39Z"/>
  <path class="cls-1" d="M86.55,10.22l1.13-8.88-1.86,3.09-.55,4.39.82,1.26.47.14Z"/>
  <path class="cls-1" d="M84.68,8.61l-.72-1.12-1.15,1.91.25.43,1.62-1.22Z"/>
  <path class="cls-1" d="M80.18,17.37l-.43-.81-.16.97.1.2.49-.35Z"/>
  <path class="cls-1" d="M80.89,18.75l-2.03,3.27-.8,4.73,6.23-10.01-3.26,2.28-.14-.28Z"/>
  <path class="cls-1" d="M94.82,13.43l-2.48-.67-4.2,1-3.07,2.42,9.63-2.3.12-.45Z"/>
  <path class="cls-1" d="M85.69,13.32l-1.64-2.72-.35.28.94,1.56-3.73,2.7.7,1.26,1.33-.95-.57.95,2.56-1.85-1.17.28,1.93-1.5Z"/>
  <path class="cls-1" d="M114.78,28.82c-.35-.39-.47-.87-.37-1.42.12-.57.39-1.04.88-1.44.47-.39,1.03-.59,1.64-.57.18,0,.35.04.49.06-.33-.32-.76-.47-1.31-.49-.64,0-1.17.18-1.66.57-.47.39-.76.87-.88,1.44-.1.55.02,1.02.39,1.42.25.28.57.45.94.55l-.12-.12Z"/>
  <path class="cls-1" d="M117.99,24.54c.14.1.27.22.39.35.57.61.8,1.36.7,2.21-.1.87-.53,1.58-1.27,2.15-.72.53-1.56.79-2.48.77-.39,0-.74-.1-1.07-.22.51.39,1.13.61,1.89.63.94.02,1.78-.24,2.48-.77.72-.55,1.15-1.28,1.25-2.15.1-.85-.12-1.6-.68-2.21-.33-.37-.74-.63-1.19-.79l-.02.02Z"/>
  <path class="cls-1" d="M135.63,25.98c.61.55,1.02,1.38.92,2.64-.24,2.95-2.83,3.17-4.49,2.99l-.47-.04-.04.49,1.48.16c1.66.16,4.24-.04,4.49-2.99.14-1.81-.78-2.76-1.88-3.23v-.02Z"/>
  <path class="cls-1" d="M131.82,30.49l.39.06c.21.02.41.04.62.04l.39-3.98h.33c.41.04.92.1,1.39.28-.62-.65-1.64-.81-2.36-.85h-.35l-.43,4.47.02-.02Z"/>
  <path class="cls-1" d="M125.55,27.02c.12-.98-.33-1.71-1.21-2.03.35.37.49.91.41,1.52-.12,1-.68,1.65-1.6,1.83l1.56,2.52-.88-.08.27.47,1.39.16-1.56-2.56c.92-.2,1.47-.85,1.6-1.85l.02.02Z"/>
  <path class="cls-1" d="M123.61,25.88c-.14-.32-.43-.49-.88-.51l-1.13-.08-.72,5.2h-.27l-.06.39,1.11.12.35-2.52-.66-1.14s.37.06.8.06l.22-1.6,1.13.08h.1Z"/>
  <path class="cls-1" d="M138.79,16.68c-.35-.67-.59-1.4-.7-2.23-.39-3.01,3.13-5.4,4.61-5.79,3.67-.98,6.31.3,7.19.83l-.04-3.07c-.29-.12-.72-.24-1.23-.33v1.69s-2.97-2.27-7.5-1.04c-1.5.39-5.02,2.78-4.63,5.79.23,1.75,1.07,3.17,2.27,4.18l.02-.02Z"/>
  <path class="cls-1" d="M150.03,21.41v-2.34c-.35.16-.76.33-1.23.51v.75c-5.31,2.42-10.22.93-13.09-1.75,2.27,3.78,8.17,6.66,14.67,3.68v-.83h-.37l.02-.02Z"/>
  <path class="cls-1" d="M163.65,23.85l-.18-3.11-1.48-.04.08,1.22-10.49-.45.02,1.79,12.05.59Z"/>
  <path class="cls-1" d="M153.64,10.54h1.54l-.06-2.21,7.01-.16-.18-2.92-1.46.04.06.93-7.01.18.1,4.14Z"/>
  <path class="cls-1" d="M162.08,12.47h-1.5l.06,1.06-6.86-.04.16,5.02,1.52.06-.1-3.15,6.86.04-.14-2.99Z"/>
  <path class="cls-1" d="M45.52,13.99l1.23-5.46-1.11.02-1.84,8.29-.55-.02-.25.97,1.64.06.23-.97-.9-.02,1.56-2.88Z"/>
  <path class="cls-1" d="M41.23,12.8h1.95l.88-3.35-2.83,3.35Z"/>
  <path class="cls-1" d="M40.11,14.16l-1.97,2.42h-.18l-.74.91,1.8.08,1.99-2.44,1.52.06.25-.95-2.66-.08Z"/>
  <path class="cls-1" d="M127.54,6.93c-1.02,0-3.28.14-3.28.14l-1.82,13.16-.88-.04-.23,1.54,3.24.16.92-6.56-1.93-2.8s1.09.08,2.33-.12l.51-3.68s2.13-.12,3.19-.14c-.27-1.04-1.27-1.65-2.07-1.63v-.02Z"/>
  <path class="cls-1" d="M130.53,16.09c1.09-.41,2.03-.91,2.79-1.5-.08-.37-.14-.73-.16-1.1-.06-2.27.49-4,1.35-5.36-.55-.87-1.37-1.38-2.17-1.65.53.81.82,1.97.59,3.6-.29,2.09-2.05,3.41-4.57,4.37l4.77,6.2-3.03-.12,1.17,1.69,4.12.2-4.88-6.34h.02Z"/>
  <path class="cls-1" d="M159.86,28.52l3.75.26-.08-1.1-.96-.08.02.35-3.83-.26.1,1.99,1.07.08-.06-1.24Z"/>
  <path class="cls-1" d="M163.53,30.79l-1.07-.08.02.37-3.58-.28.12,2.27,1.07.1-.08-1.54,3.58.28-.06-1.12Z"/>
  <path class="cls-1" d="M163.94,34.25l-1.04-.1.02.47-4.01-.37.04.71,5.08.51-.08-1.22Z"/>
  <path class="cls-1" d="M155.34,27.44c.62.61,1.04,1.46,1.02,2.72-.04,3.03-2.87,3.58-4.45,3.43l-.49-.06v.63l1.58.16c1.58.16,4.4-.39,4.44-3.41,0-1.91-.98-2.93-2.13-3.45l.02-.02Z"/>
  <path class="cls-1" d="M151.75,32.4c.33.04.61.04.86.04l-.08-4.41h.18c.86.06,1.45.18,1.93.37-.1-.12-.23-.24-.37-.33-.55-.43-1.31-.69-2.64-.77h-.18l.08,5.1h.23Z"/>
  <path class="cls-1" d="M148.7,26.61l.04,6.62h-.18v.65l1.21.1-.04-7.29-1.02-.08Z"/>
  <path class="cls-1" d="M143.58,31.87l.55,1.58,3.01-6.91-1.23-.1-2.33,5.44Z"/>
  <path class="cls-1" d="M142.45,25.74l-.39.85,1.21,3.25.39-.91-1.21-3.19Z"/>
  <path class="cls-1" d="M139.93,31.48l.55,1.6,1.54-3.51-.57-1.58-1.52,3.49Z"/>
  <path class="cls-1" d="M139.22,25.96l-.76-.06,1.21,3.62.43-.91-.88-2.66Z"/>
  <path class="cls-1" d="M106.81,23.68l-.78-.06.68,3.13.59-.93-.49-2.15Z"/>
  <path class="cls-1" d="M109.7,23.7l-.49.75.61,2.27.47-.91-.59-2.11Z"/>
  <path class="cls-1" d="M109.94,28.54l.35,1.28,3.22-5.69-1.02-.06-2.54,4.47Z"/>
  <path class="cls-1" d="M106.77,28.25l.27,1.22,1.72-2.6-.33-1.14-1.66,2.52Z"/>
  <path class="cls-3" d="M143.25,47.9c2.23,1.3,4.43,2.66,6.58,4.08h1.27c-14.59-9.81-30.93-16.6-48.65-20.17-22.51-4.53-45.54-3.35-66.97,3.11-.27.08-.51.16-.76.24-7.83,2.4-15.45,5.52-22.74,9.32h-.04c-4.1,2.13-8.07,4.49-11.94,7.03v.47h.61c3.79-2.48,7.68-4.81,11.68-6.87,4.83-2.05,9.79-3.82,14.85-5.3-.96,1.26-1.45,2.58-1.72,3.84-.57,2.6-.29,5.38.82,8.33h1.02c-1.15-2.9-1.45-5.63-.9-8.13.33-1.44.9-3.01,2.34-4.49,7.09-1.99,14.34-3.43,21.73-4.31-.1.24-.16.45-.23.67-.49,2.19.06,4.53,1.52,6.91-8.32,2.42-16.51,5.55-24.48,9.36h1.66c7.56-3.53,15.34-6.44,23.21-8.73,1.95,2.9,5.26,5.87,9.69,8.73h1.62c-4.79-2.93-8.36-5.99-10.45-8.98,8.17-2.3,16.41-3.94,24.62-4.85,1.95,1.12,4.3,2.27,7.01,3.35-6.94,2.64-14.05,6.13-21.18,10.48h1.45c6.97-4.18,13.93-7.58,20.71-10.1,2.52.97,5.22,1.85,8.24,2.66-1.84,2.23-3.79,4.73-5.74,7.45h1.19c1.91-2.64,3.61-5.06,5.41-7.23,1.56.39,3.15.77,4.83,1.1,1.5.3,2.91.57,4.38.79.45,1.67.82,3.47,1.23,5.34h1.04c-.41-1.83-.96-3.57-1.39-5.22,3.03.43,6,.69,8.79.81,1.46,1.4,2.89,2.88,4.32,4.43h.98c-1.39-1.54-2.81-2.99-4.24-4.39,2.93.08,5.63-.02,7.99-.3,2.58,1.46,5.14,3.03,7.68,4.69h1.31c-2.58-1.71-5.18-3.33-7.81-4.85,2.4-.33,4.36-.87,5.74-1.58,4.94,1.89,9.69,4.06,14.28,6.42h1.58c-4.83-2.54-9.85-4.85-15.08-6.89.7-.49,1.13-1.04,1.27-1.65.04-.2.04-.43-.02-.67,2.83.97,5.71,2.13,8.62,3.55,0,0,2.38,1.22,3.07,1.6l-.02-.02ZM127.93,40.32c.76.35,1.33.73,1.76,1.06-9.61-3.01-18.42-3.82-25.13-4.31,5.18-.63,10.39-.69,14.69-.04,2.95.98,5.84,2.09,8.71,3.27l-.02.02ZM116.29,36.08c-4.28-.33-9.14-.14-13.89.59,1.04-.91,2.83-2.34,4.22-3.21,3.28.77,6.49,1.63,9.67,2.64v-.02ZM102.28,32.5c1.13.24,2.25.47,3.38.73-1.64,1.1-3.5,2.7-4.3,3.39-.43-.95-1.45-3.11-2.48-4.75,1.13.2,2.27.41,3.4.63ZM97.92,31.71c.9,1.32,1.91,3.35,2.5,4.57-3.93-2.42-8.46-4.51-12.66-5.91,3.4.32,6.78.75,10.16,1.32v.02ZM75.02,29.82c3.09,0,6.21.1,9.32.3,4.36,1.08,9.48,3.21,14.01,5.77-6.6-2.09-16.29-4.61-24.54-5.81.35-.12.76-.22,1.21-.26ZM72.01,31.46c.06-.26.31-.57.74-.85,7.33.98,16.02,3.15,22.64,5.12-7.62-1.34-15.2-2.11-22.7-2.34-.04-.06-.1-.14-.16-.2-.45-.67-.61-1.24-.51-1.73ZM66.66,30.08c1.58.04,3.3.2,5.12.41-.25.28-.43.55-.49.83-.14.61.04,1.3.49,2.05-6.72-.16-13.38.12-19.95.83.84-1.3,2.25-2.62,3.81-2.99,3.65-.53,7.33-.91,11.02-1.14v.02ZM28.04,38.82c-2.64.75-5.26,1.62-7.87,2.52,3.05-1.34,6.15-2.58,9.3-3.7-.55.37-1.02.77-1.43,1.18ZM29.91,38.33c1.13-.85,2.6-1.63,4.57-2.32,6.17-1.91,12.48-3.41,18.87-4.43-1.09.75-1.97,1.77-2.52,2.76-7.11.83-14.09,2.17-20.92,4.02v-.02ZM52.63,42.41c-1.43-2.28-2.01-4.49-1.56-6.5.06-.28.18-.61.35-.95,6.86-.77,13.85-1.08,20.89-.89.88,1.06,2.34,2.27,4.32,3.49-7.99.95-16.04,2.56-23.99,4.83l-.02.02ZM73.32,34.13c7.66.28,15.38,1.1,23.15,2.52-6.12-.18-12.37.12-18.64.79-1.99-1.16-3.52-2.28-4.53-3.33l.02.02ZM78.89,38.05c6.53-.67,13.03-.87,19.4-.61-4.1.87-8.34,2.11-12.64,3.68-2.56-.98-4.83-2.05-6.76-3.09v.02ZM94.37,43.96c-2.79-.73-5.31-1.56-7.68-2.44,4.61-1.65,9.12-2.92,13.48-3.72-1.82,1.75-3.81,3.8-5.78,6.17h-.02ZM99.7,45.2c-1.54-.32-3.01-.65-4.47-1.02,2.05-2.42,4.02-4.53,5.9-6.3.96,2.34,1.78,5.04,2.62,8.08-1.35-.22-2.64-.45-4.04-.73l-.02-.02ZM104.62,46.05c-.8-2.92-1.66-5.55-2.58-7.86,3.67,2.44,7.27,5.34,10.8,8.67-2.56-.12-5.31-.37-8.22-.81ZM113.92,46.9c-3.3-3.15-6.66-5.95-10.06-8.33,5.98,2.23,11.88,4.94,17.66,8.15-2.23.22-4.79.28-7.6.18ZM122.75,46.58c-5.55-3.13-11.21-5.83-16.94-8.06,7.93,1.73,15.53,3.96,22.78,6.7-1.39.59-3.38,1.04-5.82,1.36h-.02ZM129.45,44.81c-7.27-2.78-14.93-5.06-22.92-6.83,6.68.53,15.08,1.54,24.13,4.51.2.35.25.65.2.83-.12.53-.61,1.04-1.41,1.5Z"/>
  <path class="cls-3" d="M35.05,13.41s1.52.08,2.56-.2c1.04-.3,2.34-1.26,2.91-2.28.2-.35.68-1.28.39-2.19-.35-1.12-1.52-1-1.52-1l-2.58.1-5.18,8.47,1.41.06h.2l1.8-2.95ZM35.79,12.17l1.91-3.17h1.11s.9.06.72.91c-.04.18-.16.49-.29.71-.37.65-1.17,1.24-1.82,1.44-.04,0-.08,0-.12.02-.63.16-1.5.1-1.5.1Z"/>
  <path class="cls-3" d="M129.49,30.73l.04-.43-1.31-.14-1.02-.1.55-4.9.06-.49-1.11-.06-.76,6.4,1.03.1,2.44.24.08-.61Z"/>
  <path class="cls-3" d="M110.07,19.95c7.01-.51,8.87-4.1,9.67-7.78.29-1.36.08-2.88-.66-4.2-1.04-1.89-3.19-3.33-6.62-3.21-2.99.1-5.22,1.38-6.76,2.84-.47.43-.86.89-1.21,1.32-.7.91-1.15,1.77-1.33,2.38-.1.33-.18.65-.25.95-.18.81-.25,1.56-.23,2.21.08,1.73.84,3.01,1.93,3.9,1.5,1.24,3.61,1.73,5.45,1.6ZM105.79,11.68c.84-2.8,3.05-4.59,6.47-4.75,2.17-.08,3.34.93,3.89,2.21.55,1.26.49,2.76.25,3.7-.35,1.3-1.95,4.25-6.27,4.41-1.15.04-2.25-.2-3.09-.75-1.29-.83-1.97-2.4-1.25-4.83Z"/>
  <path class="cls-3" d="M97.69,13h4.34l.2-.77.39-1.46-2.46.02h-1.8l.88-3.21,4.73-.16.14-.53.37-1.52-7.39.28-2.27,7.78-.12.45-1.47,5.08,1.78.08.94.04,1.74-6.09Z"/>
  <path class="cls-3" d="M71.94,7.78l.49-1.2-2.11.04-.53,1.24-.72,1.67-1.15,2.64-.72,1.67-1.37,3.17-.35.77.86.04.88.02,4.59.18.29-.77.45-1.18-2.17-.08-1.72-.08,3.28-8.13Z"/>
  <path class="cls-3" d="M65.1,16.98l.47-1.12-2.07-.08-1.64-.06,1.45-3.07h3.15l.18-.47.49-1.2h-1.47l-1.62.02,1.13-2.6,3.48-.08.18-.41.53-1.22-5.53.18-.63,1.34-.82,1.75-3.15,6.68-.41.87,1.02.04.57.02,4.36.2.31-.77Z"/>
  <path class="cls-3" d="M58.46,17.02l.1-.22.78-1.83c-1.72.81-2.81.87-3.5.63-.74-.26-1.02-.83-1.13-1.26-.16-.71.29-2.03,1.23-3.27.33-.43.72-.85,1.17-1.22.02-.02.06-.06.08-.08.12-.12.25-.24.39-.33.23-.16.43-.3.66-.41,2.42-1.38,3.87.33,3.87.33l.64-1.28.27-.53c-.47-.73-3.89-1.58-6.94,1.1-.31.28-.61.59-.9.93-1.13,1.28-2.07,2.93-2.34,4.31-.08.43-.12.83-.06,1.18.23,1.18.78,1.85,1.45,2.21,1.74.93,4.28-.24,4.28-.24l-.04-.02Z"/>
  <path class="cls-3" d="M77.08,12.45l-.08-.2,2.56-2.05-7.56,1.81-1.15.28.92.3,1.97.65,4.36,1.44-1.02-2.23Z"/>
  <path class="cls-3" d="M85.18,9.38l.08-.55.55-4.39.57-4.43-5.57,9.22,2.87-2.17.29.43.72,1.12.49.77Z"/>
  <path class="cls-3" d="M81.61,16.39l-1.43.98-.49.35-.1-.2-.9-1.75-.27-.51-.08.39-1.6,9.79,2.13-3.43,2.03-3.27,1.47-2.36.57-.95-1.33.95Z"/>
  <path class="cls-3" d="M94.37,12.29l-7.83-2.07-.47-.14-.57-.14,1.43,2.38-1.25.98-1.93,1.5,1.17-.28,3.22-.77,4.2-1,2.03-.47Z"/>
  <path class="cls-3" d="M150.01,19.05l.02,2.36.35.02,1.21.04,10.49.45-.08-1.22-.1-1.89-6.43-.24-1.52-.06-.16-5.02,6.86.04-.06-1.06-.08-1.93h-6.86l-.1-4.14,7.01-.18-.06-.93-.12-1.99-10.53.39.04,2.7.02,3.07.12,9.57Z"/>
  <path class="cls-3" d="M81.2,11.88l1.56-2.56-3.5,2.6-.43.32,2.38-.35Z"/>
  <path class="cls-3" d="M45.64,8.55l.23-1-1.86.06-2.15,2.5-3.46,4.08-.1.12-1.93,2.25,1.62.06h.18l1.97-2.44,2.64.1-.25.95-.39,1.6,1.11.04h.55l1.84-8.27v-.02ZM43.18,12.8h-1.95l2.83-3.37-.88,3.37Z"/>
  <path class="cls-3" d="M49.94,13.47c2.91-.43,3.79-2.62,4.08-3.39.23-.65.25-1.16.14-1.56-.33-1.32-2.09-1.24-2.09-1.24l-3.01.12-3.56,6.58-1.56,2.88.9.04h.57l.18.02,2.52-4.67.43,2.01.59,2.84h.74l1.19.06-1.15-3.68h.02ZM49.7,12.13c-.8.16-1.48.1-1.56.08l1.82-3.41,1.5-.06c.84.1,1,.55.9,1.04-.1.53-.51,1.1-.74,1.34-.55.59-1.27.87-1.93.98v.02Z"/>
  <path class="cls-3" d="M133.32,14.6c.33,1.4,1.17,2.8,2.42,3.96,2.85,2.7,7.76,4.18,13.09,1.75v-.75l-.04-2.66c-.78.53-2.93,1.36-4.92,1.4-1.99.04-3.77-.53-5.1-1.63-1.21-.98-2.05-2.4-2.27-4.18-.39-3.01,3.13-5.4,4.63-5.79,4.53-1.22,7.52,1.04,7.52,1.04v-3.13c-.51-.35-3.77-1.08-5.96-.93-1.29.08-5.86.87-8.15,4.47-.86,1.36-1.41,3.09-1.35,5.36,0,.35.08.73.16,1.1l-.02-.02Z"/>
  <path class="cls-3" d="M119.16,20.07l2.4.12.88.04,1.82-13.16s2.25-.12,3.28-.14c.8,0,1.78.59,2.07,1.63.08.3.1.65.04,1-.39,1.85-2.21,2.56-3.75,2.82-1.27.2-2.33.12-2.33.12l1.93,2.8,3.58,5.16,1.07.04,3.03.12-4.77-6.2c2.5-.97,4.28-2.28,4.57-4.37.22-1.63-.08-2.78-.59-3.6-1.39-2.15-4.47-1.97-4.47-1.97l-6.47.22-.76,5.26-1.11,7.56-.37,2.5-.04.06Z"/>
  <path class="cls-3" d="M162.9,34.15l-.06-.73-2.74-.26-1.07-.1-.12-2.27,3.59.28-.02-.37-.04-.75-2.5-.2-1.07-.08-.1-1.99,3.83.26-.02-.35-.06-.75-5.02-.33.35,7.64,1.07.1,4.01.37-.02-.47Z"/>
  <path class="cls-3" d="M156.36,30.16c0-1.24-.41-2.11-1.02-2.72-.94-.93-2.34-1.2-3.3-1.26l-1.76-.12.08,7.35,1.09.1.49.06c1.58.16,4.4-.39,4.45-3.43l-.02.02ZM151.55,32.4l-.08-5.1h.18c1.35.08,2.09.33,2.64.77.14.1.27.22.37.33.33.37.47.87.53,1.6.06,1.02-.31,1.56-.84,1.95-.25.18-.68.47-1.7.51-.25,0-.53,0-.86-.04h-.21l-.04-.02Z"/>
  <path class="cls-3" d="M148.7,26.61v-.65l-1.19-.08v7.25l1.04.1h.18l-.04-6.62Z"/>
  <path class="cls-3" d="M112.69,23.7l-1.23-.06-1.17,2.17-.47.91-.61-2.27-.31-1.18-1.6,2.56-.59.93-.68-3.13-.06-.32-1.11-.08,1.33,5.87.57-.85,1.66-2.52.33,1.14.68,2.54.51-.87,2.54-4.47.21-.37Z"/>
  <path class="cls-3" d="M117.81,29.25c.72-.55,1.15-1.28,1.27-2.15.1-.85-.12-1.6-.7-2.21-.12-.14-.25-.26-.39-.35-.49-.39-1.07-.59-1.76-.61-.86,0-1.68.3-2.4.87-.74.57-1.17,1.28-1.33,2.09-.14.85.04,1.6.59,2.19.33.33.72.57,1.17.73.33.12.68.2,1.07.22.94.02,1.78-.24,2.48-.77ZM113.98,28.38c-.35-.39-.47-.87-.39-1.42.12-.57.41-1.04.88-1.44.47-.39,1.02-.59,1.66-.57.55,0,.98.18,1.31.49.04.04.1.08.14.12.35.41.49.89.39,1.46-.08.59-.37,1.06-.86,1.44-.51.37-1.04.57-1.68.53-.18,0-.35-.04-.53-.08-.37-.1-.68-.28-.94-.55l.02.02Z"/>
  <path class="cls-3" d="M123.15,28.36c.92-.2,1.47-.85,1.6-1.85.08-.63-.06-1.14-.41-1.52-.37-.39-.94-.63-1.68-.67l-2.05-.14-.84,6.2.84.08h.27l.72-5.18,1.13.08c.43.02.74.2.88.51.06.18.1.35.06.61-.1.71-.88.87-1.5.89-.43,0-.8-.06-.8-.06l.66,1.14,1.31,2.27.51.06.88.08-1.56-2.52-.02.02Z"/>
  <path class="cls-3" d="M136.55,28.6c.1-1.24-.31-2.07-.92-2.64-.78-.69-1.9-.95-2.81-1l-1.6-.1-.63,6.6,1.02.1.47.04c1.66.16,4.24-.04,4.49-2.99h-.02ZM132.25,25.98h.35c.72.06,1.76.22,2.36.87.35.35.55.87.47,1.62-.16,1.79-1.33,2.13-2.6,2.09-.2,0-.41,0-.61-.04l-.39-.06.43-4.49v.02Z"/>
  <path class="cls-3" d="M146.18,25.8l-1.17-.08-1.35,3.21-.39.91-1.21-3.25-.47-1.24-1.49,3.27-.43.91-1.21-3.62-.2-.59-1.21-.08,2.48,7.19.41-.95,1.52-3.49.57,1.58,1.15,3.23.41-.93,2.34-5.44.27-.63Z"/>
  <path class="cls-4" d="M80.67,14.66l.33-1.73.2-1.04-2.38.35.35.65,1.37,2.52.12-.75Z"/>
  <path class="cls-4" d="M82.16,12.04l2.48.39-.94-1.56-.64-1.04-.25-.43-.06-.08-1.56,2.56.96.16Z"/>
  <path class="cls-2" d="M81.2,11.88l-.2,1.04-.33,1.73-.12.75.37-.28,3.73-2.7-2.48-.39-.96-.16Z"/>
</svg>