<svg width="24" height="30" viewBox="0 0 24 30" fill="none" xmlns="http://www.w3.org/2000/svg">
<g id="Details">
<g id="Details / Illustration / Safety">
<g id="Group 1">
<path id="Vector 1" d="M24 20.5419V5.69011C24 4.60331 23.3484 3.60421 22.3035 3.15717C14.1298 -0.340006 9.13081 -0.156447 1.66199 3.14804C0.635345 3.60227 0 4.59164 0 5.66575V20.5208C0 21.4506 0.479328 22.3216 1.28367 22.8536L10.4115 28.8901C11.4533 29.5791 12.8398 29.5713 13.8729 28.8708L22.7451 22.8555C23.5327 22.3215 24 21.4599 24 20.5419Z" fill="#7AA0E9"/>
<path id="Vector 1 (Stroke)" fill-rule="evenodd" clip-rule="evenodd" d="M22.5 20.5419V5.69011C22.5 5.13725 22.1701 4.66032 21.6865 4.45341C17.708 2.7512 14.6379 2.00428 11.7292 2.02407C8.82262 2.04384 5.92798 2.82996 2.29632 4.43674C1.82192 4.64664 1.5 5.11846 1.5 5.66575V20.5208C1.5 20.9857 1.73966 21.4212 2.14183 21.6872L11.2697 27.7237C11.7906 28.0682 12.4838 28.0643 13.0004 27.7141L21.8725 21.6987C22.2663 21.4317 22.5 21.0009 22.5 20.5419ZM24 5.69011V20.5419C24 21.4599 23.5327 22.3215 22.7451 22.8555L13.8729 28.8708C12.8398 29.5713 11.4533 29.5791 10.4115 28.8901L1.28367 22.8536C0.479328 22.3216 0 21.4506 0 20.5208V5.66575C0 4.59164 0.635345 3.60227 1.66199 3.14804C9.13081 -0.156447 14.1298 -0.340006 22.3035 3.15717C23.3484 3.60421 24 4.60331 24 5.69011Z" fill="#4E81E5"/>
<g id="icon">
<path d="M12 5.39844L13.975 11.7909H20.4L15.225 15.7532L12.025 18.1833L6.82498 22.1456L8.79998 15.7532L3.59998 11.7909H10.025L12 5.39844Z" fill="#1C1C1C"/>
<path d="M15.65 17.2324L12 18.2098L17.175 22.1984L15.65 17.2324Z" fill="#1C1C1C"/>
</g>
</g>
</g>
</g>
</svg>
