<svg width="131" height="42" viewBox="0 0 131 42" fill="none" xmlns="http://www.w3.org/2000/svg">
<path d="M79.2782 1.29887C83.341 1.95411 87.116 3.2211 90.2682 5.9392C92.5868 7.93849 94.1227 10.4546 95.0153 13.368C96.1181 16.968 96.2743 20.6468 95.8844 24.3669C95.6031 27.05 94.9116 29.6115 93.5866 31.977C91.774 35.2131 89.0647 37.4362 85.695 38.9006C83.1804 39.9934 80.5411 40.6294 77.8238 40.8892C75.9053 41.0726 73.9736 41.1634 72.0461 41.196C69.1204 41.2457 66.1933 41.209 63.2668 41.209C63.1366 41.209 63.0063 41.209 62.8574 41.209C62.8574 27.7385 62.8574 14.286 62.8574 0.81223C62.9165 0.803389 62.9833 0.784474 63.05 0.784669C66.8399 0.795765 70.6306 0.764529 74.4191 0.841671C76.0311 0.874494 77.6384 1.13446 79.2782 1.29887ZM76.0796 35.9809C77.9225 35.8326 79.746 35.5785 81.517 35.0191C84.3637 34.12 86.6692 32.5212 88.1684 29.8826C89.172 28.1163 89.689 26.1957 89.9187 24.1911C90.2782 21.0552 90.2079 17.9419 89.3272 14.8875C88.4415 11.8162 86.6753 9.42706 83.8054 7.92302C81.5791 6.75626 79.1689 6.23049 76.6938 6.09014C74.0981 5.94296 71.4931 5.95973 68.8922 5.90581C68.8253 5.90443 68.7581 5.91429 68.6932 5.91876C68.6932 15.9935 68.6932 26.0385 68.6932 36.1482C71.1484 36.0945 73.5807 36.0414 76.0796 35.9809Z" fill="white"/>
<path d="M126.589 21.707C128.593 23.1655 129.955 25.0319 130.428 27.4695C131.343 32.1809 129.727 36.7642 125.158 39.4727C122.819 40.8599 120.262 41.5569 117.578 41.8465C115.129 42.1107 112.69 42.0469 110.275 41.5534C105.787 40.6363 102.101 38.5003 99.6962 34.4685C98.7017 32.8013 98.1308 30.9822 97.8276 29.0731C97.8243 29.0522 97.8392 29.0283 97.8501 28.99C99.7152 28.7292 101.586 28.4676 103.417 28.2117C103.716 29.1077 103.953 29.987 104.298 30.8212C105.59 33.9421 107.968 35.8082 111.214 36.5647C113.954 37.2035 116.712 37.1706 119.433 36.4287C121.255 35.9323 122.842 35.053 123.888 33.3885C125.116 31.4353 125.246 27.7541 122.291 25.7264C120.897 24.7697 119.344 24.1798 117.721 23.7952C115.217 23.2018 112.691 22.7004 110.183 22.1248C107.369 21.4792 104.697 20.498 102.484 18.5562C99.7595 16.1641 98.8107 13.1057 99.3024 9.58758C99.756 6.34234 101.692 4.10343 104.428 2.48298C106.603 1.19464 108.983 0.497497 111.476 0.187512C114.832 -0.229674 118.133 0.0250016 121.323 1.19661C124.686 2.43167 127.34 4.52125 128.901 7.81668C129.342 8.74902 129.639 9.74998 130.029 10.7911C128.043 11.0708 126.175 11.3336 124.308 11.5964C124.097 11.0646 123.919 10.5315 123.678 10.0282C122.6 7.77133 120.76 6.38822 118.426 5.66965C115.283 4.70231 112.138 4.73941 109.048 5.93031C107.56 6.50412 106.285 7.37482 105.592 8.88321C104.72 10.7812 104.972 13.7211 107.628 15.3637C109.015 16.2214 110.551 16.6507 112.118 17.014C115.068 17.698 118.027 18.3469 120.957 19.108C122.967 19.6302 124.86 20.4763 126.589 21.707Z" fill="white"/>
<path d="M52.7275 35.6533C52.7275 24.0232 52.7275 12.4291 52.7275 0.809448C54.5436 0.809448 56.3354 0.809448 58.144 0.809448C58.144 14.3238 58.144 27.8464 58.144 41.39C56.3535 41.39 54.5614 41.39 52.7275 41.39C52.7275 39.4904 52.7275 37.5898 52.7275 35.6533Z" fill="white"/>
<path d="M0.623048 23.9942C0.623047 16.3793 0.623047 8.80033 0.623047 1.19324C0.748122 1.18736 0.862102 1.18199 0.996597 1.17566C0.996597 14.7773 0.996597 28.3599 0.996597 41.9719C0.891685 41.9765 0.779503 41.9815 0.623049 41.9884C0.623049 35.9877 0.623049 30.0089 0.623048 23.9942Z" fill="white"/>
<path d="M6.53491 18.5159C7.09161 18.5064 7.62001 18.4923 8.14609 18.5208C9.91443 18.6168 10.8371 19.7765 10.5529 21.5261C10.3815 22.5819 9.77703 23.2462 8.71846 23.4088C7.99162 23.5205 7.2477 23.5209 6.4807 23.5732C6.4807 22.6734 6.47746 21.8594 6.48159 21.0455C6.48585 20.2072 6.49727 19.369 6.53491 18.5159ZM9.72437 20.1647C9.34495 19.3078 8.32004 18.9018 7.22607 19.1715C7.22607 20.4025 7.22607 21.6321 7.22607 22.9189C7.70334 22.8802 8.16092 22.8821 8.60227 22.7983C9.28442 22.6689 9.72369 22.2374 9.78851 21.5347C9.82844 21.1018 9.75941 20.6589 9.72437 20.1647Z" fill="white"/>
<path d="M6.48184 27.4547C7.16575 26.7166 7.99167 26.643 8.87739 26.87C9.49929 27.0294 9.91955 27.4904 10.0239 28.0969C9.81491 28.1305 9.60595 28.1641 9.40284 28.1968C9.01584 27.4253 8.38137 27.2633 7.61161 27.4562C7.278 27.5398 7.01246 27.7342 7.00529 28.1164C6.99805 28.5015 7.26542 28.6991 7.59206 28.7969C7.96946 28.9099 8.35955 28.9802 8.74298 29.0737C8.88214 29.1076 9.02117 29.1468 9.15483 29.1978C9.72142 29.414 10.1234 29.7713 10.1514 30.4231C10.1772 31.0199 9.84347 31.5277 9.21619 31.7781C8.37482 32.1139 7.54768 32.0736 6.78692 31.5471C6.38658 31.2701 6.17207 30.8681 6.1123 30.3582C6.35253 30.3274 6.56213 30.3006 6.76709 30.2743C7.17892 31.2286 7.88021 31.5659 8.80555 31.2678C9.14111 31.1597 9.37674 30.9542 9.40323 30.5862C9.42986 30.2162 9.23257 29.9583 8.8989 29.8435C8.52756 29.7157 8.13808 29.6412 7.75837 29.5368C7.54002 29.4767 7.31614 29.4238 7.1107 29.3319C6.29625 28.9679 6.06014 28.2736 6.48184 27.4547Z" fill="white"/>
<path d="M25.1181 19.7494C25.8944 19.8339 26.407 20.2461 26.5359 20.9894C26.6138 21.4384 26.627 21.9274 26.536 22.3711C26.2987 23.5282 24.9512 24.0656 23.9064 23.1788C23.8801 23.2876 23.8564 23.3859 23.8276 23.5056C23.645 23.5056 23.4588 23.5056 23.249 23.5056C23.249 21.8468 23.249 20.1877 23.249 18.5101C23.4558 18.5101 23.6537 18.5101 23.8773 18.5101C23.8773 19.0823 23.8773 19.6413 23.8773 20.2992C24.2405 19.9003 24.6296 19.7358 25.1181 19.7494ZM23.858 21.9083C23.8727 22.0029 23.8827 22.0986 23.9027 22.1921C24.0165 22.7236 24.391 23.0476 24.8979 23.0561C25.4013 23.0646 25.7813 22.7909 25.8737 22.2406C25.9374 21.8616 25.9223 21.4527 25.8551 21.0726C25.7709 20.5964 25.4438 20.3477 25.0224 20.3221C24.5289 20.2922 24.1614 20.4828 24.0008 20.9362C23.8998 21.2215 23.8991 21.5422 23.858 21.9083Z" fill="white"/>
<path d="M28.5946 28.2167C29.3928 28.5712 29.7696 29.253 29.6951 30.2184C28.761 30.2184 27.8223 30.2184 26.8892 30.2184C26.8285 30.7196 27.0395 31.1079 27.4488 31.2992C27.8974 31.5088 28.4841 31.4142 28.7793 31.0846C29.0905 30.7373 29.0905 30.7373 29.5993 30.8599C29.4363 31.6557 28.4625 32.1534 27.5028 31.9315C26.4526 31.6886 25.914 30.6312 26.2292 29.4307C26.5003 28.3978 27.4626 27.894 28.5946 28.2167ZM27.1644 28.9451C27.0428 29.17 26.9212 29.3949 26.7708 29.673C27.5911 29.673 28.2928 29.673 29.0226 29.673C28.9681 29.269 28.8158 28.9489 28.4476 28.7755C28.0114 28.5701 27.5924 28.615 27.1644 28.9451Z" fill="white"/>
<path d="M14.4715 13.8402C14.4776 13.4416 14.4255 13.0584 14.5087 12.7074C14.7355 11.7514 15.6609 11.2235 16.6424 11.4371C17.5392 11.6323 18.1054 12.5198 17.9423 13.5136C17.0189 13.5136 16.0896 13.5136 15.1649 13.5136C15.0993 13.9952 15.3135 14.3908 15.7252 14.5868C16.1423 14.7855 16.8188 14.7096 17.0424 14.3535C17.2886 13.9615 17.5653 14.051 17.8892 14.1478C17.6442 14.8739 17.0037 15.2883 16.1819 15.2633C15.262 15.2353 14.739 14.8085 14.4715 13.8402ZM16.1701 11.939C15.4472 12.043 15.1161 12.3801 15.1635 12.9622C15.865 12.9622 16.5662 12.9622 17.2684 12.9622C17.222 12.327 16.9218 12.0334 16.1701 11.939Z" fill="white"/>
<path d="M13.9356 28.9279C14.0593 29.3564 14.1685 29.7624 14.2951 30.233C13.2351 30.233 12.2947 30.233 11.3541 30.233C11.3722 30.8588 11.638 31.2331 12.1368 31.3716C12.6732 31.5205 13.1387 31.3143 13.5061 30.7509C13.695 30.7788 13.8937 30.8083 14.1489 30.8461C14.0593 31.0161 14.0033 31.1707 13.9078 31.295C13.4323 31.9139 12.7822 32.067 12.0504 31.9384C11.3254 31.811 10.8906 31.3624 10.7232 30.6517C10.5838 30.06 10.613 29.4793 10.9263 28.948C11.639 27.7394 13.4126 27.9029 13.9356 28.9279ZM13.476 29.659C13.4724 29.0683 13.0642 28.6653 12.4645 28.6606C11.7976 28.6554 11.385 29.0346 11.3784 29.6827C12.0565 29.6827 12.7348 29.6827 13.476 29.659Z" fill="white"/>
<path d="M44.1466 13.1797C44.1465 13.8463 44.1465 14.4797 44.1465 15.1412C44.0132 15.1412 43.8298 15.1412 43.6204 15.1412C43.6013 15.0327 43.5792 14.9076 43.5482 14.7324C43.1077 15.2254 42.5708 15.3305 41.9744 15.2196C41.4288 15.118 41.0575 14.7061 41.0186 14.1601C40.9811 13.6354 41.2106 13.2662 41.7881 13.1022C42.3358 12.9466 42.9077 12.8761 43.4779 12.7664C43.5381 12.2908 43.4073 12.0599 42.9918 11.9424C42.4116 11.7784 41.9699 11.9974 41.7322 12.5684C41.5454 12.5684 41.358 12.5684 41.1705 12.5684C41.1826 12.0434 41.4886 11.6538 42.0145 11.4859C42.1393 11.446 42.2702 11.413 42.4002 11.4034C43.8392 11.2983 44.2498 11.8032 44.1466 13.1797ZM42.8032 13.4127C42.5591 13.4632 42.3088 13.4942 42.0725 13.5695C41.8238 13.6487 41.6732 13.8405 41.6936 14.1113C41.7143 14.3846 41.8667 14.5703 42.1392 14.65C42.9999 14.9019 43.7063 14.238 43.5047 13.3529C43.2933 13.3718 43.0805 13.3909 42.8032 13.4127Z" fill="white"/>
<path d="M27.3753 14.9488C26.9057 15.3055 26.3988 15.3211 25.8852 15.1851C25.4034 15.0574 25.0762 14.5891 25.0657 14.0804C25.0563 13.6263 25.2978 13.2622 25.8186 13.115C26.3777 12.957 26.9589 12.8772 27.541 12.7611C27.6069 12.2936 27.4552 12.0403 27.0207 11.9318C26.4426 11.7875 25.9903 12.0241 25.805 12.571C25.6165 12.571 25.4269 12.571 25.2379 12.571C25.2216 12.0601 25.5449 11.5955 26.0997 11.4929C26.5351 11.4123 27.0046 11.4159 27.4437 11.4827C27.9305 11.5568 28.1955 11.9756 28.2137 12.5555C28.228 13.0101 28.2108 13.4657 28.2093 13.9208C28.208 14.3254 28.209 14.7301 28.209 15.1521C28.0721 15.1521 27.8832 15.1521 27.6686 15.1521C27.6563 15.0282 27.6438 14.9023 27.627 14.7328C27.538 14.8086 27.4661 14.8698 27.3753 14.9488ZM25.8601 14.424C26.2212 14.741 26.6874 14.7854 27.1117 14.5432C27.5075 14.3172 27.6741 13.9073 27.5757 13.3276C27.1345 13.3951 26.6846 13.4345 26.2501 13.5384C25.7825 13.6503 25.6803 13.8981 25.8601 14.424Z" fill="white"/>
<path d="M32.9355 13.9279C32.9402 13.4701 32.8819 13.0245 32.9819 12.6177C33.19 11.7712 33.921 11.3199 34.8081 11.3989C35.6437 11.4732 36.2721 12.0833 36.3487 12.9351C36.3774 13.2535 36.3803 13.5895 36.3106 13.8984C36.1147 14.7662 35.5092 15.2434 34.6543 15.2629C33.8252 15.2818 33.2318 14.829 32.9355 13.9279ZM35.4284 14.3175C35.7929 13.7286 35.7837 13.1083 35.528 12.4958C35.3715 12.1208 35.0387 11.9585 34.6288 11.9606C34.2225 11.9628 33.8573 12.102 33.7423 12.4973C33.6292 12.8865 33.603 13.3122 33.6072 13.7211C33.6116 14.1431 33.8291 14.4885 34.2466 14.6284C34.6702 14.7702 35.0756 14.7149 35.4284 14.3175Z" fill="white"/>
<path d="M10.7909 13.6311C10.7818 13.2959 10.7927 12.9944 10.7591 12.6979C10.7041 12.2136 10.5333 12.0267 10.1543 11.9737C9.6663 11.9055 9.25852 12.0795 9.1061 12.4769C9.01392 12.7173 8.97127 12.988 8.96299 13.2469C8.94308 13.869 8.95654 14.4923 8.95654 15.1426C8.75077 15.1426 8.55586 15.1426 8.33691 15.1426C8.33691 13.928 8.33691 12.712 8.33691 11.4752C8.52345 11.4752 8.71158 11.4752 8.92887 11.4752C8.94339 11.5807 8.9604 11.7042 8.9858 11.8887C9.35016 11.5091 9.77526 11.3733 10.2557 11.3937C10.9089 11.4215 11.3517 11.7642 11.3872 12.4117C11.4368 13.3163 11.3997 14.2257 11.3997 15.1516C11.2115 15.1516 11.0143 15.1516 10.7909 15.1516C10.7909 14.6457 10.7909 14.1563 10.7909 13.6311Z" fill="white"/>
<path d="M36.6688 19.7553C37.7147 19.7392 38.3449 20.1903 38.565 21.0873C38.809 22.0813 38.4236 23.0792 37.6542 23.4451C36.4994 23.9944 35.2246 23.2614 35.1352 21.9888C35.1168 21.7273 35.1124 21.4569 35.1574 21.2004C35.3021 20.375 35.7743 19.9284 36.6688 19.7553ZM35.8045 21.5359C35.8196 21.7504 35.8157 21.9683 35.8535 22.1787C35.9502 22.7163 36.3228 23.0395 36.8352 23.055C37.3687 23.0712 37.7818 22.7695 37.8671 22.2107C37.9235 21.8408 37.9191 21.4442 37.85 21.0769C37.7546 20.5703 37.3746 20.3179 36.8637 20.319C36.2334 20.3203 35.9184 20.6661 35.8045 21.5359Z" fill="white"/>
<path d="M33.0908 31.4497C32.535 32.0213 31.8766 32.0779 31.1821 31.892C30.6337 31.7453 30.2763 31.3847 30.1426 30.7786C30.3665 30.7567 30.5736 30.7364 30.7761 30.7166C31.1769 31.405 31.7258 31.6304 32.3075 31.3162C32.4513 31.2385 32.6103 31.0407 32.6142 30.8942C32.6181 30.75 32.4654 30.531 32.3259 30.4681C32.0253 30.3327 31.6927 30.2592 31.3667 30.1914C30.6109 30.0343 30.2412 29.7004 30.2441 29.1464C30.2469 28.6342 30.6884 28.2474 31.4077 28.1272C32.3148 27.9755 33.0349 28.3685 33.2639 29.157C32.9449 29.2181 32.6655 29.3374 32.4303 28.9234C32.227 28.5659 31.3139 28.5579 31.0135 28.843C30.7967 29.0488 30.8749 29.3811 31.1989 29.4927C31.5248 29.605 31.8696 29.6615 32.2045 29.7486C32.3427 29.7845 32.4811 29.8264 32.6119 29.8828C33.3168 30.1869 33.4948 30.7478 33.0908 31.4497Z" fill="white"/>
<path d="M15.1796 21.4794C15.7792 21.766 16.0244 22.1163 15.9657 22.5721C15.9002 23.0795 15.5174 23.4449 14.9254 23.5649C13.9322 23.7663 13.123 23.3972 12.8472 22.6152C12.8283 22.5614 12.8249 22.5021 12.8105 22.4257C13.0244 22.4001 13.2236 22.3762 13.4183 22.3529C13.8921 23.0592 14.2657 23.2403 14.8744 22.9883C15.0507 22.9154 15.2572 22.6971 15.2751 22.527C15.2902 22.3848 15.0806 22.155 14.916 22.0726C14.6656 21.9473 14.3661 21.923 14.0913 21.8425C13.8407 21.769 13.5734 21.7155 13.352 21.5869C12.7813 21.2554 12.7555 20.4788 13.2794 20.0777C13.8261 19.6592 14.8695 19.6186 15.4116 20.0415C15.6412 20.2207 15.794 20.4982 16.0413 20.805C15.7139 20.841 15.5157 20.8629 15.3245 20.8839C14.981 20.3382 14.6527 20.1998 14.0168 20.3311C13.7818 20.3796 13.5294 20.4909 13.572 20.7509C13.5985 20.9125 13.8048 21.1078 13.9738 21.1701C14.3525 21.3097 14.7582 21.3756 15.1796 21.4794Z" fill="white"/>
<path d="M22.2724 12.1252C21.9164 12.4249 21.854 12.8103 21.8519 13.215C21.8485 13.8489 21.851 14.4829 21.851 15.1422C21.6396 15.1422 21.4441 15.1422 21.2305 15.1422C21.2305 13.9214 21.2305 12.7042 21.2305 11.4708C21.4266 11.4708 21.615 11.4708 21.8226 11.4708C21.84 11.5928 21.8575 11.7151 21.8637 11.7586C22.2306 11.6363 22.5854 11.4471 22.9557 11.4091C23.7853 11.3239 24.2706 11.7722 24.315 12.612C24.3421 13.1259 24.3235 13.6422 24.3247 14.1574C24.3255 14.48 24.3249 14.8026 24.3249 15.1464C24.1088 15.1464 23.9103 15.1464 23.6744 15.1464C23.6744 14.6153 23.6745 14.0918 23.6744 13.5683C23.6743 13.3526 23.6792 13.1368 23.6729 12.9213C23.6466 12.0267 23.1174 11.7157 22.2724 12.1252Z" fill="white"/>
<path d="M28.8224 23.5971C27.9461 23.6613 27.4394 23.3021 27.3885 22.4887C27.3335 21.6086 27.3761 20.7225 27.3761 19.8274C27.5886 19.8274 27.785 19.8274 28.0146 19.8274C28.0146 20.4892 28.0127 21.1332 28.0158 21.7771C28.0167 21.9684 28.0185 22.1614 28.0435 22.3505C28.102 22.7938 28.2667 22.9731 28.6477 23.0384C29.0424 23.1061 29.4408 22.9514 29.5796 22.6019C29.6865 22.3326 29.7331 22.0266 29.7441 21.7345C29.7678 21.1033 29.7514 20.4706 29.7514 19.8241C29.9778 19.8241 30.166 19.8241 30.3789 19.8241C30.3789 21.0439 30.3789 22.2587 30.3789 23.5014C30.1921 23.5014 29.9968 23.5014 29.7736 23.5014C29.7604 23.3847 29.7465 23.2628 29.7394 23.1996C29.4422 23.3308 29.1471 23.4611 28.8224 23.5971Z" fill="white"/>
<path d="M39.389 19.9845C39.5878 19.8854 39.7861 19.8203 40.0154 19.7451C40.0259 19.9584 40.0318 20.0764 40.0412 20.2662C40.3929 19.8927 40.7988 19.7383 41.2695 19.748C42.0009 19.763 42.4513 20.1555 42.4759 20.887C42.5049 21.747 42.4827 22.6087 42.4827 23.4983C42.293 23.4983 42.0987 23.4983 41.8642 23.4983C41.8642 22.9501 41.8671 22.4027 41.8629 21.8554C41.8608 21.5923 41.848 21.3292 41.8348 21.0664C41.8172 20.7146 41.6873 20.4342 41.3157 20.3394C40.8964 20.2326 40.4373 20.3589 40.2661 20.6914C40.1347 20.9467 40.0557 21.2522 40.0412 21.5398C40.0088 22.1843 40.0311 22.8315 40.0311 23.5022C39.8189 23.5022 39.6234 23.5022 39.3887 23.5022C39.3887 22.3336 39.3887 21.1761 39.389 19.9845Z" fill="white"/>
<path d="M39.1401 11.3947C39.901 11.5279 40.2312 11.8805 40.2458 12.604C40.2627 13.4425 40.2497 14.2816 40.2497 15.1437C40.0406 15.1437 39.8442 15.1437 39.6044 15.1437C39.6044 14.7141 39.6053 14.2875 39.6041 13.8609C39.6031 13.5011 39.6088 13.141 39.5953 12.7817C39.5768 12.289 39.4016 12.0485 39.0344 11.9778C38.5252 11.8797 38.1028 12.0605 37.9315 12.4944C37.846 12.7111 37.8049 12.9569 37.7986 13.191C37.7811 13.8368 37.7925 14.4834 37.7925 15.1482C37.5729 15.1482 37.3744 15.1482 37.1611 15.1482C37.1611 13.9233 37.1611 12.7161 37.1611 11.481C37.3585 11.481 37.5542 11.481 37.7801 11.481C37.7867 11.5986 37.7939 11.7242 37.8039 11.9003C38.1726 11.5026 38.613 11.3693 39.1401 11.3947Z" fill="white"/>
<path d="M25.2703 28.6017C25.4125 28.8327 25.5399 29.0422 25.7027 29.3097C25.4312 29.3562 25.2367 29.3894 25.081 29.4161C24.8914 29.1971 24.7573 28.9524 24.5509 28.8214C23.9948 28.4683 23.2553 28.7438 23.0709 29.3822C22.9774 29.7057 22.9574 30.0713 22.9959 30.4074C23.06 30.9671 23.4279 31.3329 23.8876 31.3992C24.3801 31.4702 24.7524 31.2424 25.054 30.6716C25.2445 30.6961 25.443 30.7217 25.6423 30.7474C25.5341 31.4183 24.9513 31.903 24.1929 31.9743C23.3805 32.0506 22.6744 31.6163 22.4071 30.8758C22.0721 29.9479 22.3466 28.868 23.0353 28.4042C23.7195 27.9435 24.596 28.0129 25.2703 28.6017Z" fill="white"/>
<path d="M19.6014 28.3902C19.7572 28.137 19.7572 28.137 20.3436 28.1917C20.1915 28.588 20.0437 28.9722 19.8965 29.3566C19.6017 30.1265 19.3156 30.9 19.0025 31.6624C18.9601 31.7658 18.7912 31.8465 18.6656 31.8791C18.5052 31.9207 18.3516 31.9055 18.2702 31.688C17.8475 30.5574 17.4085 29.433 16.9765 28.3059C16.9641 28.2737 16.9664 28.2359 16.9619 28.2008C17.6074 28.0973 17.606 28.0978 17.811 28.6643C18.047 29.3162 18.2844 29.9676 18.5244 30.6181C18.5605 30.7161 18.614 30.8077 18.6824 30.95C18.9973 30.073 19.2945 29.2454 19.6014 28.3902Z" fill="white"/>
<path d="M16.9629 21.7627C16.9629 21.2741 16.9629 20.8215 16.9629 20.3573C16.7485 20.3448 16.5725 20.3346 16.3809 20.3234C16.3809 20.1604 16.3809 20.0097 16.3809 19.8251C16.5586 19.8154 16.7322 19.806 16.9415 19.7947C16.9415 19.4717 16.9415 19.1555 16.9415 18.816C17.1856 18.816 17.3932 18.816 17.6212 18.816C17.6212 19.1409 17.6212 19.45 17.6212 19.7887C17.8587 19.8014 18.0785 19.8132 18.3134 19.8257C18.3134 19.9968 18.3134 20.1488 18.3134 20.3281C18.0986 20.3281 17.8865 20.3281 17.6338 20.3281C17.6338 21.1505 17.6262 21.9466 17.6453 22.7421C17.6473 22.8223 17.7988 22.9333 17.9017 22.9677C18.0194 23.0071 18.1604 22.9768 18.3107 22.9768C18.3107 23.1604 18.3107 23.3224 18.3107 23.4881C18.2711 23.5031 18.2393 23.5248 18.2066 23.5262C17.0859 23.5728 16.9651 23.457 16.963 22.3376C16.9627 22.158 16.963 21.9783 16.9629 21.7627Z" fill="white"/>
<path d="M13.4741 11.9838C13.2257 11.9525 13.2131 12.0835 13.2144 12.2459C13.2193 12.8087 13.2162 13.3715 13.2163 13.9343C13.2164 14.6036 13.2165 14.6036 13.8966 14.6448C13.8966 14.8035 13.8966 14.9641 13.8966 15.1254C13.8768 15.1377 13.8581 15.1593 13.8384 15.1601C12.6754 15.211 12.5686 15.1075 12.5686 13.9324C12.5686 13.2989 12.5686 12.6653 12.5686 11.9991C12.3622 11.9891 12.1783 11.9801 11.9805 11.9705C11.9805 11.7962 11.9805 11.6462 11.9805 11.4716C12.1629 11.4624 12.3372 11.4537 12.5475 11.4432C12.5475 11.1197 12.5475 10.8032 12.5475 10.4591C12.7786 10.4591 12.9738 10.4591 13.2062 10.4591C13.2062 10.772 13.2062 11.0897 13.2062 11.4379C13.4503 11.4379 13.6596 11.4379 13.8938 11.4379C13.8938 11.627 13.8938 11.7858 13.8938 11.9838C13.764 11.9838 13.6364 11.9838 13.4741 11.9838Z" fill="white"/>
<path d="M30.0117 11.1714C29.99 11.3791 30.0378 11.4799 30.2418 11.4583C30.3832 11.4434 30.5273 11.4554 30.6928 11.4554C30.6928 11.6362 30.6928 11.7959 30.6928 11.9762C30.4747 11.9762 30.2738 11.9762 30.0117 11.9762C30.0117 12.3352 30.0116 12.6766 30.0117 13.018C30.0117 13.3897 30.0099 13.7613 30.0123 14.133C30.0152 14.585 30.0462 14.6142 30.506 14.6293C30.5643 14.6312 30.6224 14.6386 30.6965 14.6447C30.6965 14.8163 30.6965 14.977 30.6965 15.124C30.6676 15.1445 30.6583 15.1567 30.648 15.1576C29.5297 15.2612 29.36 15.1074 29.3599 13.9906C29.3598 13.3346 29.3599 12.6786 29.3599 12.0045C29.1467 11.9928 28.9709 11.9832 28.7734 11.9723C28.7734 11.8137 28.7734 11.6631 28.7734 11.4706C28.9494 11.4617 29.1329 11.4524 29.3493 11.4414C29.3493 11.1087 29.3493 10.79 29.3493 10.451C29.5812 10.451 29.779 10.451 30.0117 10.451C30.0117 10.6886 30.0117 10.913 30.0117 11.1714Z" fill="white"/>
<path d="M31.5649 19.7706C31.588 19.4485 31.588 19.1503 31.588 18.8223C31.8095 18.8223 32.0055 18.8223 32.2363 18.8223C32.2363 19.1259 32.2363 19.4437 32.2363 19.7881C32.489 19.8012 32.7096 19.8126 32.9464 19.8249C32.9464 19.9932 32.9464 20.1427 32.9464 20.3212C32.7301 20.3212 32.5192 20.3212 32.2481 20.3212C32.2481 20.7122 32.2481 21.0772 32.2482 21.4422C32.2482 21.7897 32.2453 22.1371 32.2491 22.4845C32.2543 22.9445 32.281 22.9688 32.7405 22.9789C32.7999 22.9802 32.8593 22.9851 32.9392 22.9895C32.9478 23.072 32.9611 23.1515 32.9632 23.2313C32.9654 23.3141 32.9569 23.3972 32.9526 23.4893C32.9014 23.5028 32.857 23.5232 32.8119 23.5251C31.7382 23.5719 31.6027 23.4428 31.602 22.374C31.6015 21.7067 31.6019 21.0394 31.6019 20.3533C31.3893 20.3426 31.2137 20.3337 31.0215 20.3241C31.0215 20.1623 31.0215 20.011 31.0215 19.8267C31.195 19.816 31.3684 19.8052 31.5649 19.7706Z" fill="white"/>
<path d="M7.19547 10.2103C7.20285 11.869 7.20285 13.4952 7.20285 15.1446C6.96617 15.1446 6.74521 15.1446 6.50195 15.1446C6.50195 13.4842 6.50195 11.8279 6.50195 10.1089C6.73439 10.1323 6.96124 10.1551 7.19547 10.2103Z" fill="white"/>
<path d="M15.5604 28.3688C15.5605 28.4821 15.5605 28.5641 15.5605 28.728C15.9109 28.3112 16.2902 28.0907 16.8067 28.1671C16.8067 28.3779 16.8067 28.5761 16.8067 28.802C16.7522 28.8071 16.6972 28.8167 16.6422 28.8167C15.8748 28.8177 15.5897 29.0882 15.5726 29.8724C15.5583 30.5295 15.5696 31.1872 15.5696 31.8657C15.3478 31.8657 15.1513 31.8657 14.9355 31.8657C14.9355 30.6364 14.9355 29.4212 14.9355 28.1658C15.1523 28.25 15.4265 27.9669 15.5604 28.3688Z" fill="white"/>
<path d="M45.1221 13.3431C45.1221 12.2573 45.1221 11.2076 45.1221 10.1407C45.3431 10.1407 45.5301 10.1407 45.7452 10.1407C45.7452 11.7984 45.7452 13.4548 45.7452 15.1403C45.5563 15.1403 45.3509 15.1403 45.1221 15.1403C45.1221 14.5495 45.1221 13.9643 45.1221 13.3431Z" fill="white"/>
<path d="M19.3509 14.4877C19.3509 14.7241 19.3509 14.9256 19.3509 15.1476C19.1272 15.1476 18.9296 15.1476 18.7256 15.1476C18.7256 13.9157 18.7256 12.6976 18.7256 11.4713C18.9278 11.4713 19.1148 11.4713 19.3267 11.4713C19.3267 11.6394 19.3267 11.791 19.3267 12.0337C19.6811 11.6011 20.0557 11.3747 20.5732 11.452C20.5732 11.6656 20.5732 11.8653 20.5732 12.0943C20.4898 12.0989 20.3997 12.1081 20.3095 12.1083C19.6846 12.1093 19.4073 12.3477 19.3683 12.9794C19.338 13.4689 19.355 13.9614 19.3509 14.4877Z" fill="white"/>
<path d="M19.0752 23.2541C19.0752 22.0969 19.0752 20.9735 19.0752 19.8299C19.2874 19.8299 19.4736 19.8299 19.6904 19.8299C19.7024 19.9837 19.7146 20.1415 19.7324 20.3712C20.0504 19.9408 20.4259 19.7534 20.9311 19.8012C20.9311 20.0111 20.9311 20.2187 20.9311 20.4523C20.8557 20.4562 20.7646 20.4648 20.6734 20.4651C20.0409 20.4672 19.7507 20.7321 19.7342 21.3775C19.7162 22.0815 19.7301 22.7863 19.7301 23.5591C19.5005 23.3983 19.1408 23.7971 19.0752 23.2541Z" fill="white"/>
<path d="M22.2325 21.9073C22.2325 22.4555 22.2325 22.9678 22.2325 23.5047C22.0147 23.5047 21.8171 23.5047 21.5938 23.5047C21.5938 22.2874 21.5938 21.0637 21.5938 19.8241C21.7975 19.8241 21.9957 19.8241 22.2325 19.8241C22.2325 20.5157 22.2325 21.1935 22.2325 21.9073Z" fill="white"/>
<path d="M33.708 22.9775C33.708 21.9153 33.708 20.8877 33.708 19.8339C33.9191 19.8339 34.115 19.8339 34.3305 19.8339C34.3305 21.0523 34.3305 22.2755 34.3305 23.514C34.127 23.514 33.9406 23.514 33.708 23.514C33.708 23.3369 33.708 23.1745 33.708 22.9775Z" fill="white"/>
<path d="M12.0973 22.9092C12.0973 23.1237 12.0973 23.303 12.0973 23.5053C11.8856 23.5053 11.6882 23.5053 11.4678 23.5053C11.4678 22.2858 11.4678 21.0705 11.4678 19.832C11.6631 19.832 11.8596 19.832 12.0973 19.832C12.0973 20.8442 12.0973 21.8592 12.0973 22.9092Z" fill="white"/>
<path d="M21.296 31.8847C21.1459 31.8847 21.0281 31.8847 20.8867 31.8847C20.8867 30.6412 20.8867 29.4249 20.8867 28.1855C21.0845 28.1855 21.281 28.1855 21.521 28.1855C21.521 28.6159 21.521 29.0439 21.521 29.4719C21.521 30.1796 21.522 30.8873 21.5202 31.595C21.5198 31.7301 21.5697 31.9059 21.296 31.8847Z" fill="white"/>
<path d="M32.1108 11.8355C32.1108 12.9574 32.1108 14.0438 32.1108 15.1489C31.8951 15.1489 31.6975 15.1489 31.4834 15.1489C31.4834 13.9196 31.4834 12.7073 31.4834 11.4742C31.683 11.4742 31.8698 11.4742 32.1108 11.4742C32.1108 11.5745 32.1108 11.6872 32.1108 11.8355Z" fill="white"/>
<path d="M21.6012 18.5294C21.8106 18.5074 21.9988 18.5074 22.209 18.5074C22.209 18.7507 22.209 18.9812 22.209 19.2367C22.0141 19.2367 21.8183 19.2367 21.5801 19.2367C21.5801 19.0137 21.5801 18.7825 21.6012 18.5294Z" fill="white"/>
<path d="M34.3485 19.1395C34.1453 19.2112 33.9428 19.2513 33.7188 19.2957C33.7188 18.998 33.7188 18.7735 33.7188 18.5208C33.9177 18.5208 34.1117 18.5208 34.3493 18.5208C34.3493 18.7124 34.3493 18.9102 34.3485 19.1395Z" fill="white"/>
<path d="M32.1106 10.5405C32.1106 10.6775 32.1106 10.7806 32.1106 10.8954C31.8883 10.8954 31.7017 10.8954 31.4902 10.8954C31.4902 10.6488 31.4902 10.4077 31.4902 10.1443C31.6817 10.1443 31.8667 10.1443 32.1106 10.1443C32.1106 10.2587 32.1106 10.3826 32.1106 10.5405Z" fill="white"/>
<path d="M21.5219 27.2258C21.5219 27.3657 21.5219 27.4723 21.5219 27.6031C21.3115 27.6031 21.1152 27.6031 20.8916 27.6031C20.8916 27.3672 20.8916 27.1276 20.8916 26.8707C21.0925 26.8707 21.2888 26.8707 21.5064 26.8707C21.5119 26.985 21.5169 27.0888 21.5219 27.2258Z" fill="white"/>
<path d="M12.0967 19.0202C12.0429 19.1229 11.9982 19.2365 11.9333 19.2495C11.7865 19.2789 11.6298 19.2587 11.4453 19.2587C11.4453 19.1114 11.4453 18.9948 11.4453 18.8781C11.4453 18.761 11.4453 18.644 11.4453 18.5101C11.6738 18.5101 11.8704 18.5101 12.0967 18.5101C12.0967 18.6785 12.0967 18.832 12.0967 19.0202Z" fill="white"/>
</svg>
